<svg version="1.1" id="Layer_1" xmlns="http://www.w3.org/2000/svg" xmlns:xlink="http://www.w3.org/1999/xlink" x="0px" y="0px"
	 width="100%" viewBox="0 0 858 562" enable-background="new 0 0 858 562" xml:space="preserve">
<path fill="#111111" opacity="1.000000" stroke="none" 
	d="
M1.000000,552.000000 
	C1.000000,368.387970 1.000000,184.775940 1.000000,1.000000 
	C283.361359,1.000000 565.722717,1.000000 848.540466,1.354307 
	C853.637329,6.386148 855.053101,12.087179 855.050720,18.561737 
	C854.986389,191.548218 854.999756,364.534729 854.999084,537.521240 
	C854.999023,553.467468 847.438660,560.999146 831.432739,560.999146 
	C561.453796,560.999695 291.474884,560.978943 21.495981,561.094299 
	C13.016151,561.097961 6.210187,558.693420 1.000000,552.000000 
M170.851776,283.498932 
	C168.774673,284.538452 166.784149,285.841217 164.601303,286.559235 
	C160.789078,287.813171 159.719345,290.194580 159.988342,294.082275 
	C160.355011,299.381409 160.277206,304.736359 159.970154,310.043091 
	C159.866074,311.841888 158.202698,313.498718 157.760925,315.342377 
	C157.161896,317.842316 156.082535,320.944550 157.045425,322.870331 
	C157.792191,324.363861 161.324524,324.570404 163.671982,325.122101 
	C165.347321,325.515839 167.371445,325.045135 168.790817,325.802216 
	C175.299728,329.273926 181.650513,333.042114 187.930069,336.630737 
	C193.961533,333.160675 199.907272,329.931946 205.634109,326.352966 
	C208.007095,324.869904 209.840210,324.025818 212.820648,325.100769 
	C214.431992,325.681915 217.659988,324.567780 218.708466,323.147736 
	C219.782532,321.692963 219.995636,317.662231 219.010574,316.956116 
	C214.193680,313.503174 215.144852,308.616180 215.797455,304.418091 
	C217.567978,293.028748 214.224197,285.302216 202.459549,282.318420 
	C201.544022,282.086212 200.812363,281.188171 199.901276,280.862488 
	C199.009247,280.543579 197.997055,280.560852 197.037598,280.430573 
	C196.842499,280.920685 196.647385,281.410797 196.452286,281.900909 
	C201.314514,284.423920 206.176727,286.946899 211.242538,289.575500 
	C190.223099,303.829041 183.125473,302.274231 164.696350,289.402374 
	C169.611542,286.825043 174.435211,284.295685 179.258896,281.766357 
	C178.983902,281.176819 178.708908,280.587280 178.433914,279.997772 
	C176.118820,281.033356 173.803741,282.068970 170.851776,283.498932 
M181.582672,274.150421 
	C185.534073,279.042389 189.110535,280.333313 191.697052,276.899658 
	C194.136429,273.661346 196.893295,274.093536 199.908920,274.060608 
	C203.903595,274.016968 207.926529,273.774017 211.882690,274.166840 
	C213.843918,274.361603 215.937927,275.465271 217.521790,276.724030 
	C220.391663,279.004883 223.190979,279.609253 225.940201,277.061432 
	C228.479095,274.708557 228.815598,271.702423 226.341797,269.114685 
	C223.633209,266.281311 220.766403,266.366150 217.614883,269.032013 
	C215.952957,270.437866 213.542465,271.362793 211.357254,271.651276 
	C208.084991,272.083282 204.666397,271.409790 201.395004,271.845032 
	C196.255112,272.528900 192.435638,270.982758 189.773087,266.162262 
	C193.390350,260.931305 197.350479,255.581528 200.835587,249.938400 
	C201.902222,248.211288 202.186539,245.614517 201.927597,243.527878 
	C201.157623,237.323441 199.829483,231.190399 198.940353,224.997742 
	C198.465714,221.692123 197.101883,219.833618 193.534866,219.927765 
	C189.708817,220.028732 185.874420,220.053741 182.050446,219.919418 
	C178.698792,219.801697 177.338058,221.389496 176.909470,224.579559 
	C176.057236,230.922699 174.708496,237.206985 174.065460,243.566223 
	C173.832062,245.874496 174.481522,248.653931 175.676132,250.651459 
	C178.962601,256.146820 182.750931,261.342041 186.030640,266.197052 
	C183.349792,272.246826 178.399765,272.029877 173.356705,271.793152 
	C170.034698,271.637268 166.672806,272.012421 163.381271,271.659760 
	C161.701035,271.479767 159.768555,270.580536 158.592377,269.378113 
	C155.710098,266.431519 152.722794,266.203064 149.824524,268.737366 
	C147.403839,270.854065 147.210770,273.719391 149.325714,276.322540 
	C151.799194,279.367004 155.428894,279.636658 157.564194,276.969666 
	C160.147964,273.742493 163.063828,274.065338 166.255554,274.054779 
	C171.082977,274.038788 175.910507,274.055450 181.582672,274.150421 
M263.137573,289.909546 
	C264.000092,283.881470 264.862610,277.853394 265.725159,271.825317 
	C266.035156,271.764618 266.345154,271.703888 266.655151,271.643188 
	C271.320190,280.838013 275.985229,290.032837 281.132935,300.178986 
	C286.281494,290.004303 290.920532,280.836609 296.236450,270.331207 
	C297.581848,279.830994 298.691559,287.803680 299.848663,295.769470 
	C300.317993,299.000397 300.365021,298.993561 304.299591,298.349426 
	C302.376526,285.059418 300.453033,271.766754 298.529572,258.474060 
	C298.191254,258.424377 297.852936,258.374664 297.514648,258.324982 
	C292.234253,268.994293 286.953857,279.663605 281.236725,291.215424 
	C275.411041,279.647705 270.009064,268.921234 263.898834,256.788483 
	C261.752136,271.791473 259.819031,285.301605 257.885956,298.811737 
	C258.393188,299.100647 258.900421,299.389587 259.407684,299.678497 
	C260.377106,298.523376 261.714935,297.508789 262.222626,296.177551 
	C262.855560,294.517944 262.804199,292.597321 263.137573,289.909546 
M466.475250,257.757751 
	C454.993042,261.197296 448.328125,271.035797 450.209961,281.768005 
	C452.090302,292.491821 461.633118,299.973206 472.784637,299.466187 
	C480.038666,299.136353 489.588196,294.538605 489.932922,290.892487 
	C489.082489,290.286102 488.097382,289.583710 486.666595,288.563568 
	C485.875092,289.616547 485.412720,290.603638 484.645142,291.193573 
	C478.611084,295.831482 471.869080,296.598480 464.902771,293.995544 
	C459.453461,291.959473 455.779297,288.019135 454.904572,282.005371 
	C453.739563,273.995972 457.144806,266.697205 463.525452,263.342743 
	C470.308899,259.776520 479.075043,260.731354 484.865204,266.083466 
	C487.271545,268.307739 488.642395,268.007629 490.234467,265.308899 
	C484.019470,258.215057 476.273407,256.059204 466.475250,257.757751 
M536.720032,271.198914 
	C530.150696,278.117981 529.350525,286.660004 535.309204,293.491547 
	C537.441895,295.936615 540.772583,297.946991 543.918030,298.764038 
	C549.471558,300.206604 554.541748,298.151672 558.736816,293.711823 
	C558.923035,295.865479 559.060303,297.453278 559.222290,299.327332 
	C560.762878,299.116211 561.962158,298.951874 563.223816,298.778992 
	C563.223816,293.746613 563.197876,289.101776 563.230103,284.457336 
	C563.276001,277.834229 560.969360,272.416962 554.960876,269.173492 
	C548.809692,265.853027 542.846375,266.596558 536.720032,271.198914 
M350.738342,268.002960 
	C343.645172,271.287292 339.259094,278.613831 340.355560,285.346252 
	C341.561218,292.749023 346.539276,298.258820 352.860687,299.013489 
	C360.701874,299.949677 367.819977,297.166260 369.721832,289.405914 
	C368.162537,289.602417 366.603821,290.046539 365.621429,291.053162 
	C362.040375,294.722504 355.643982,296.731293 351.544006,294.635925 
	C347.425446,292.531006 344.230560,289.445221 345.108246,283.499268 
	C353.813324,283.499268 362.514526,283.499268 371.208893,283.499268 
	C370.790131,271.480499 362.722382,265.269379 350.738342,268.002960 
M660.258484,297.947815 
	C662.205383,296.822571 664.152344,295.697327 666.514465,294.332092 
	C666.706604,296.170624 666.852966,297.571381 667.025085,299.218658 
	C668.512878,299.100433 669.743530,299.002655 670.929626,298.908386 
	C670.929626,293.242004 671.190552,287.906036 670.863647,282.606262 
	C670.454773,275.977783 667.127625,270.891571 660.942200,268.326965 
	C653.901733,265.407837 647.194885,267.515747 642.331726,273.578094 
	C638.160217,278.778290 637.890808,286.400055 641.676514,292.115021 
	C645.780701,298.310974 651.547729,300.291565 660.258484,297.947815 
M609.636841,270.005341 
	C609.636292,266.674683 609.518555,263.338715 609.668457,260.014832 
	C609.816772,256.726044 608.276245,256.406586 605.367126,257.482361 
	C605.367126,270.556885 605.299255,283.693481 605.506775,296.825745 
	C605.522034,297.789734 607.527100,298.722290 608.607056,299.669495 
	C609.091370,299.314026 609.575745,298.958588 610.060059,298.603119 
	C610.060059,292.802338 609.798828,286.986328 610.135620,281.205170 
	C610.454285,275.734589 615.370911,271.524445 620.456665,271.732513 
	C625.446472,271.936646 627.928101,275.000000 628.054443,281.404633 
	C628.159546,286.731659 628.075867,292.062317 628.095459,297.391296 
	C628.097229,297.859894 628.245056,298.327942 628.346375,298.920898 
	C629.633606,298.920898 630.834290,298.920898 632.062622,298.920898 
	C632.062622,292.117493 632.647461,285.567535 631.824890,279.199402 
	C631.389771,275.830444 629.147156,272.065796 626.576172,269.750580 
	C622.798584,266.348694 617.503296,267.449829 612.110291,271.531738 
	C610.875671,272.466248 609.681519,274.094513 609.636841,270.005341 
M405.038391,294.290771 
	C405.195740,289.979919 405.111572,285.643280 405.568085,281.364349 
	C406.220978,275.245239 411.050415,271.264648 416.730988,271.731415 
	C421.233948,272.101349 423.690735,275.620270 423.766724,281.989594 
	C423.828247,287.144531 423.773743,292.300781 423.796600,297.456360 
	C423.798706,297.929962 423.989319,298.402710 424.158203,299.177948 
	C425.417511,299.058777 426.633026,298.943726 427.882874,298.825409 
	C427.882874,293.972198 427.950378,289.481232 427.866302,284.993103 
	C427.753754,278.983398 427.912292,272.588745 421.680450,269.235779 
	C415.587555,265.957581 410.318634,268.917419 404.974243,273.531647 
	C404.974243,267.475250 404.974243,262.261200 404.974243,257.047119 
	C404.569702,256.818359 404.165161,256.589600 403.760651,256.360840 
	C402.881073,257.302124 401.247650,258.233856 401.235565,259.186127 
	C401.067688,272.421753 401.121918,285.660248 401.121918,298.720795 
	C405.675140,300.295624 405.038452,297.446411 405.038391,294.290771 
M497.961639,264.569305 
	C497.961639,276.000122 497.961639,287.430939 497.961639,299.219116 
	C499.592621,299.074707 500.780701,298.969513 502.038361,298.858185 
	C502.038361,295.808563 502.028015,293.148987 502.041107,290.489563 
	C502.055023,287.662781 501.911011,284.820435 502.154755,282.012604 
	C502.674622,276.024841 507.372345,271.609283 512.843323,271.726196 
	C517.842346,271.832977 520.203430,274.914886 520.393555,281.911072 
	C520.520020,286.565155 520.567810,291.231689 520.372314,295.880920 
	C520.221313,299.470886 521.746094,299.717773 524.122375,298.825104 
	C524.122375,291.631958 524.381531,284.820435 524.045410,278.038422 
	C523.743530,271.947113 519.536316,267.654114 513.747009,268.158813 
	C509.797577,268.503143 506.007507,270.675293 501.994263,272.083527 
	C501.994263,267.530273 501.994263,262.444763 501.994263,257.000916 
	C500.465912,257.100800 499.289276,257.177704 497.961639,257.264465 
	C497.961639,259.620331 497.961639,261.604401 497.961639,264.569305 
M687.560730,268.692566 
	C682.628113,270.121796 679.405396,273.261444 679.014771,278.448608 
	C678.553589,284.574005 678.437683,290.738281 678.541199,296.879486 
	C678.556824,297.805573 680.577087,298.697876 681.670105,299.605774 
	C682.131592,299.237549 682.593140,298.869324 683.054626,298.501099 
	C683.054626,292.191315 682.699341,285.855194 683.164124,279.579834 
	C683.554871,274.304535 687.429382,271.764648 693.022461,272.146973 
	C698.402832,272.514801 700.710144,274.786591 700.911499,280.337708 
	C701.104614,285.662872 701.166870,290.999817 701.052917,296.326569 
	C700.976807,299.884460 702.691162,299.510712 705.054260,298.734222 
	C705.054260,293.326843 705.112488,288.162323 705.042664,282.999542 
	C704.877991,270.831604 700.541809,267.046021 687.560730,268.692566 
M570.142578,283.274628 
	C570.319214,284.591034 570.488281,285.908508 570.673645,287.223694 
	C571.859924,295.639648 576.127625,299.368469 584.235718,299.078369 
	C591.833618,298.806549 596.348022,294.582001 596.803162,286.625519 
	C597.151550,280.533722 596.872437,274.406036 596.872437,267.971466 
	C595.397888,268.109009 594.220215,268.218842 592.963806,268.336029 
	C592.963806,274.041565 593.188293,279.370392 592.865967,284.665894 
	C592.712402,287.188110 592.016235,289.961395 590.687134,292.066101 
	C588.265869,295.900269 584.078064,295.677368 580.322449,294.761047 
	C575.720947,293.638367 574.416748,289.699829 574.270752,285.525421 
	C574.069519,279.769897 574.220337,274.002014 574.220337,268.239441 
	C573.706421,267.972534 573.192505,267.705627 572.678528,267.438690 
	C571.827393,268.577728 570.342712,269.663849 570.242371,270.865601 
	C569.925049,274.663635 570.125916,278.505005 570.142578,283.274628 
M324.854919,257.069885 
	C322.260132,256.147522 321.241821,256.980957 321.320923,259.798767 
	C321.470093,265.109802 321.304535,270.428894 321.380432,275.743042 
	C321.456146,281.045624 321.243591,286.402344 321.935638,291.632355 
	C322.660004,297.106293 328.143585,300.459717 332.909790,298.912201 
	C333.743805,298.641388 334.290955,297.486877 334.970612,296.740509 
	C334.134949,296.217255 333.197510,295.132660 332.480255,295.262665 
	C328.089600,296.058380 326.267944,293.574493 325.870728,289.933929 
	C325.341400,285.082489 325.327179,280.174835 325.084900,275.149963 
	C328.014008,274.964630 330.255249,274.822845 332.705353,274.667816 
	C332.283051,268.949951 327.271881,272.926208 325.219025,270.204346 
	C325.219025,266.360504 325.219025,262.062592 324.854919,257.069885 
M377.436890,275.459869 
	C377.799255,281.562073 383.001099,283.221558 387.109375,285.731201 
	C390.000458,287.497345 391.646606,290.230621 389.591614,292.543549 
	C388.111084,294.209869 384.508392,294.231506 381.809326,294.445770 
	C380.845520,294.522308 379.755554,293.009460 378.506378,292.056763 
	C377.681061,293.233032 376.964752,294.253906 376.025055,295.593109 
	C377.885254,296.646332 379.381348,297.678131 381.017944,298.384338 
	C385.362762,300.259247 390.429016,298.761292 392.839478,295.028656 
	C395.399292,291.064697 394.542114,286.681488 390.330383,283.284729 
	C388.552979,281.851288 386.501373,280.756531 384.566956,279.519440 
	C382.263672,278.046478 379.840240,276.620514 381.750916,273.270721 
	C383.676453,269.894958 386.247528,270.981903 389.026764,272.048920 
	C390.476196,272.605408 392.206909,272.429260 393.810608,272.584045 
	C386.746948,264.595947 379.980743,266.036591 377.436890,275.459869 
M315.170959,269.786438 
	C313.952118,269.426727 312.733307,269.067047 311.124908,268.592377 
	C311.124908,278.368378 311.219208,287.345428 311.078796,296.318817 
	C311.022186,299.937195 312.776855,299.447998 315.210144,298.722412 
	C315.210144,289.211609 315.210144,279.896942 315.170959,269.786438 
M313.977173,262.389832 
	C314.701477,261.014069 315.880371,259.660065 315.947845,258.252777 
	C315.979034,257.602142 313.848267,256.323975 312.685242,256.309265 
	C311.789307,256.297913 309.971527,258.299408 310.117615,258.571655 
	C310.909973,260.047729 312.185547,261.264435 313.977173,262.389832 
z"/>
<path fill="#FFFFFF" opacity="1.000000" stroke="none" 
	d="
M1.000000,552.482971 
	C6.210187,558.693420 13.016151,561.097961 21.495981,561.094299 
	C291.474884,560.978943 561.453796,560.999695 831.432739,560.999146 
	C847.438660,560.999146 854.999023,553.467468 854.999084,537.521240 
	C854.999756,364.534729 854.986389,191.548218 855.050720,18.561737 
	C855.053101,12.087179 853.637329,6.386148 848.998413,1.354307 
	C852.332275,1.000000 855.664490,1.000000 858.997559,1.000000 
	C858.998413,188.271683 858.998413,375.543365 858.998413,562.907532 
	C573.000000,562.907532 287.000000,562.907532 1.000000,562.907532 
	C1.000000,559.630371 1.000000,556.298157 1.000000,552.482971 
z"/>
<path fill="#DFDFDF" opacity="1.000000" stroke="none" 
	d="
M171.170227,283.301758 
	C173.803741,282.068970 176.118820,281.033356 178.433914,279.997772 
	C178.708908,280.587280 178.983902,281.176819 179.258896,281.766357 
	C174.435211,284.295685 169.611542,286.825043 164.696350,289.402374 
	C183.125473,302.274231 190.223099,303.829041 211.242538,289.575500 
	C206.176727,286.946899 201.314514,284.423920 196.452286,281.900909 
	C196.647385,281.410797 196.842499,280.920685 197.037598,280.430573 
	C197.997055,280.560852 199.009247,280.543579 199.901276,280.862488 
	C200.812363,281.188171 201.544022,282.086212 202.459549,282.318420 
	C214.224197,285.302216 217.567978,293.028748 215.797455,304.418091 
	C215.144852,308.616180 214.193680,313.503174 219.010574,316.956116 
	C219.995636,317.662231 219.782532,321.692963 218.708466,323.147736 
	C217.659988,324.567780 214.431992,325.681915 212.820648,325.100769 
	C209.840210,324.025818 208.007095,324.869904 205.634109,326.352966 
	C199.907272,329.931946 193.961533,333.160675 187.930069,336.630737 
	C181.650513,333.042114 175.299728,329.273926 168.790817,325.802216 
	C167.371445,325.045135 165.347321,325.515839 163.671982,325.122101 
	C161.324524,324.570404 157.792191,324.363861 157.045425,322.870331 
	C156.082535,320.944550 157.161896,317.842316 157.760925,315.342377 
	C158.202698,313.498718 159.866074,311.841888 159.970154,310.043091 
	C160.277206,304.736359 160.355011,299.381409 159.988342,294.082275 
	C159.719345,290.194580 160.789078,287.813171 164.601303,286.559235 
	C166.784149,285.841217 168.774673,284.538452 171.170227,283.301758 
M212.874771,292.662628 
	C205.651855,296.741516 196.096588,297.574188 192.829422,307.197296 
	C192.501221,308.164062 191.150223,308.745758 190.415375,309.624481 
	C189.850433,310.300049 189.136383,311.156311 189.124924,311.941528 
	C189.024353,318.831696 189.066696,325.723969 189.066696,333.590454 
	C196.330338,326.990173 206.849411,326.516113 210.312622,316.114105 
	C211.110138,313.718719 212.977631,311.418976 212.949295,308.467468 
	C212.901306,303.470093 212.933533,298.471924 212.874771,292.662628 
M178.767670,300.776978 
	C173.632751,297.925781 168.497849,295.074554 162.913727,291.973938 
	C162.913727,298.885864 162.332733,305.393616 163.138535,311.724854 
	C163.598557,315.339325 165.466309,319.760315 168.201431,321.891266 
	C173.639420,326.127991 180.115067,329.032837 186.749390,332.823639 
	C186.749390,326.787567 186.465759,321.624268 186.819916,316.505096 
	C187.280746,309.843872 182.275970,306.030670 178.767670,300.776978 
M189.742813,301.856171 
	C188.214630,302.262573 186.425888,302.337402 185.283752,303.235016 
	C184.812729,303.605194 185.351669,306.086151 186.144196,306.961731 
	C186.717606,307.595276 189.360840,307.541595 189.529404,307.141174 
	C190.124451,305.727661 190.051270,304.032776 189.742813,301.856171 
M160.020599,317.030823 
	C159.590027,318.569366 158.769516,320.150238 158.929520,321.624695 
	C158.989700,322.179260 161.432632,322.992645 162.586670,322.744781 
	C163.484009,322.552063 164.859222,320.244659 164.657532,319.999420 
	C163.581818,318.691650 162.076767,317.737000 160.020599,317.030823 
M212.166962,317.255219 
	C212.197327,318.987946 211.992920,320.783386 212.427185,322.408173 
	C212.532547,322.802399 215.027649,323.111481 215.903107,322.588287 
	C216.752594,322.080627 217.600815,319.735138 217.288284,319.444214 
	C216.088028,318.326813 214.421387,317.710419 212.166962,317.255219 
z"/>
<path fill="#E7E7E7" opacity="1.000000" stroke="none" 
	d="
M181.160339,274.104340 
	C175.910507,274.055450 171.082977,274.038788 166.255554,274.054779 
	C163.063828,274.065338 160.147964,273.742493 157.564194,276.969666 
	C155.428894,279.636658 151.799194,279.367004 149.325714,276.322540 
	C147.210770,273.719391 147.403839,270.854065 149.824524,268.737366 
	C152.722794,266.203064 155.710098,266.431519 158.592377,269.378113 
	C159.768555,270.580536 161.701035,271.479767 163.381271,271.659760 
	C166.672806,272.012421 170.034698,271.637268 173.356705,271.793152 
	C178.399765,272.029877 183.349792,272.246826 186.030640,266.197052 
	C182.750931,261.342041 178.962601,256.146820 175.676132,250.651459 
	C174.481522,248.653931 173.832062,245.874496 174.065460,243.566223 
	C174.708496,237.206985 176.057236,230.922699 176.909470,224.579559 
	C177.338058,221.389496 178.698792,219.801697 182.050446,219.919418 
	C185.874420,220.053741 189.708817,220.028732 193.534866,219.927765 
	C197.101883,219.833618 198.465714,221.692123 198.940353,224.997742 
	C199.829483,231.190399 201.157623,237.323441 201.927597,243.527878 
	C202.186539,245.614517 201.902222,248.211288 200.835587,249.938400 
	C197.350479,255.581528 193.390350,260.931305 189.773087,266.162262 
	C192.435638,270.982758 196.255112,272.528900 201.395004,271.845032 
	C204.666397,271.409790 208.084991,272.083282 211.357254,271.651276 
	C213.542465,271.362793 215.952957,270.437866 217.614883,269.032013 
	C220.766403,266.366150 223.633209,266.281311 226.341797,269.114685 
	C228.815598,271.702423 228.479095,274.708557 225.940201,277.061432 
	C223.190979,279.609253 220.391663,279.004883 217.521790,276.724030 
	C215.937927,275.465271 213.843918,274.361603 211.882690,274.166840 
	C207.926529,273.774017 203.903595,274.016968 199.908920,274.060608 
	C196.893295,274.093536 194.136429,273.661346 191.697052,276.899658 
	C189.110535,280.333313 185.534073,279.042389 181.160339,274.104340 
M179.397568,252.000381 
	C182.137558,255.860626 184.877548,259.720856 187.672134,263.658020 
	C199.739975,250.633087 201.514542,243.901077 196.003586,233.257950 
	C190.494003,233.257950 185.030457,233.257950 179.649490,233.257950 
	C175.178986,245.756210 175.172974,245.951340 179.397568,252.000381 
M194.716873,230.524734 
	C195.472672,228.091721 196.228455,225.658691 197.073792,222.937393 
	C190.386612,222.937393 185.072723,222.937393 179.773743,222.937393 
	C179.773743,225.657791 179.773743,227.886810 179.773743,230.545685 
	C184.673370,230.545685 189.261032,230.545685 194.716873,230.524734 
M152.572693,275.963806 
	C154.058075,274.894287 155.543457,273.824768 157.028824,272.755219 
	C156.156525,271.708984 155.411789,270.004730 154.375610,269.803864 
	C153.363815,269.607727 151.440613,270.697693 151.042435,271.679382 
	C150.615128,272.732788 151.498596,274.317902 152.572693,275.963806 
M224.722870,270.843445 
	C222.970551,270.791229 221.190338,270.572113 219.494186,270.855774 
	C219.220673,270.901520 218.807816,273.571259 219.381592,274.336639 
	C220.073273,275.259247 222.435104,276.194305 222.865555,275.801117 
	C223.968979,274.793121 224.403503,273.052917 224.722870,270.843445 
M190.892319,274.138855 
	C190.198334,272.694153 189.748032,271.009094 188.683517,269.929871 
	C188.289474,269.530396 185.757095,270.254669 185.435364,270.999847 
	C184.950699,272.122375 185.177673,274.684753 185.765289,274.910706 
	C187.148804,275.442780 188.924469,274.955109 190.892319,274.138855 
z"/>
<path fill="#EBEBEB" opacity="1.000000" stroke="none" 
	d="
M263.092957,290.349487 
	C262.804199,292.597321 262.855560,294.517944 262.222626,296.177551 
	C261.714935,297.508789 260.377106,298.523376 259.407684,299.678497 
	C258.900421,299.389587 258.393188,299.100647 257.885956,298.811737 
	C259.819031,285.301605 261.752136,271.791473 263.898834,256.788483 
	C270.009064,268.921234 275.411041,279.647705 281.236725,291.215424 
	C286.953857,279.663605 292.234253,268.994293 297.514648,258.324982 
	C297.852936,258.374664 298.191254,258.424377 298.529572,258.474060 
	C300.453033,271.766754 302.376526,285.059418 304.299591,298.349426 
	C300.365021,298.993561 300.317993,299.000397 299.848663,295.769470 
	C298.691559,287.803680 297.581848,279.830994 296.236450,270.331207 
	C290.920532,280.836609 286.281494,290.004303 281.132935,300.178986 
	C275.985229,290.032837 271.320190,280.838013 266.655151,271.643188 
	C266.345154,271.703888 266.035156,271.764618 265.725159,271.825317 
	C264.862610,277.853394 264.000092,283.881470 263.092957,290.349487 
z"/>
<path fill="#E7E7E7" opacity="1.000000" stroke="none" 
	d="
M466.879089,257.630859 
	C476.273407,256.059204 484.019470,258.215057 490.234467,265.308899 
	C488.642395,268.007629 487.271545,268.307739 484.865204,266.083466 
	C479.075043,260.731354 470.308899,259.776520 463.525452,263.342743 
	C457.144806,266.697205 453.739563,273.995972 454.904572,282.005371 
	C455.779297,288.019135 459.453461,291.959473 464.902771,293.995544 
	C471.869080,296.598480 478.611084,295.831482 484.645142,291.193573 
	C485.412720,290.603638 485.875092,289.616547 486.666595,288.563568 
	C488.097382,289.583710 489.082489,290.286102 489.932922,290.892487 
	C489.588196,294.538605 480.038666,299.136353 472.784637,299.466187 
	C461.633118,299.973206 452.090302,292.491821 450.209961,281.768005 
	C448.328125,271.035797 454.993042,261.197296 466.879089,257.630859 
z"/>
<path fill="#ECECEC" opacity="1.000000" stroke="none" 
	d="
M536.982788,270.939880 
	C542.846375,266.596558 548.809692,265.853027 554.960876,269.173492 
	C560.969360,272.416962 563.276001,277.834229 563.230103,284.457336 
	C563.197876,289.101776 563.223816,293.746613 563.223816,298.778992 
	C561.962158,298.951874 560.762878,299.116211 559.222290,299.327332 
	C559.060303,297.453278 558.923035,295.865479 558.736816,293.711823 
	C554.541748,298.151672 549.471558,300.206604 543.918030,298.764038 
	C540.772583,297.946991 537.441895,295.936615 535.309204,293.491547 
	C529.350525,286.660004 530.150696,278.117981 536.982788,270.939880 
M555.868835,290.037262 
	C559.359131,282.937775 558.907349,277.360870 554.563538,273.925476 
	C549.300720,269.763275 543.016602,270.355774 538.606995,275.430054 
	C534.389771,280.282928 534.681946,287.792999 539.254639,292.080841 
	C544.138245,296.660187 549.722839,296.145447 555.868835,290.037262 
z"/>
<path fill="#E6E6E6" opacity="1.000000" stroke="none" 
	d="
M351.123291,267.880646 
	C362.722382,265.269379 370.790131,271.480499 371.208893,283.499268 
	C362.514526,283.499268 353.813324,283.499268 345.108246,283.499268 
	C344.230560,289.445221 347.425446,292.531006 351.544006,294.635925 
	C355.643982,296.731293 362.040375,294.722504 365.621429,291.053162 
	C366.603821,290.046539 368.162537,289.602417 369.721832,289.405914 
	C367.819977,297.166260 360.701874,299.949677 352.860687,299.013489 
	C346.539276,298.258820 341.561218,292.749023 340.355560,285.346252 
	C339.259094,278.613831 343.645172,271.287292 351.123291,267.880646 
M361.620514,272.670563 
	C353.686523,269.089905 346.877106,272.131866 345.536804,279.780212 
	C352.564178,279.780212 359.604858,279.780212 368.002045,279.780212 
	C365.678406,277.005188 364.000427,275.001251 361.620514,272.670563 
z"/>
<path fill="#EDEDED" opacity="1.000000" stroke="none" 
	d="
M659.863525,298.086609 
	C651.547729,300.291565 645.780701,298.310974 641.676514,292.115021 
	C637.890808,286.400055 638.160217,278.778290 642.331726,273.578094 
	C647.194885,267.515747 653.901733,265.407837 660.942200,268.326965 
	C667.127625,270.891571 670.454773,275.977783 670.863647,282.606262 
	C671.190552,287.906036 670.929626,293.242004 670.929626,298.908386 
	C669.743530,299.002655 668.512878,299.100433 667.025085,299.218658 
	C666.852966,297.571381 666.706604,296.170624 666.514465,294.332092 
	C664.152344,295.697327 662.205383,296.822571 659.863525,298.086609 
M649.064331,293.789948 
	C649.517944,293.991699 649.956604,294.242096 650.427551,294.387695 
	C655.517517,295.961578 660.788574,294.284332 663.600769,290.212830 
	C666.930176,285.392548 666.973938,279.590332 663.712280,275.423035 
	C660.805176,271.708649 655.263611,270.067780 650.818359,271.933197 
	C642.566162,275.396088 639.835632,287.185669 649.064331,293.789948 
z"/>
<path fill="#DFDFDF" opacity="1.000000" stroke="none" 
	d="
M609.638550,270.441895 
	C609.681519,274.094513 610.875671,272.466248 612.110291,271.531738 
	C617.503296,267.449829 622.798584,266.348694 626.576172,269.750580 
	C629.147156,272.065796 631.389771,275.830444 631.824890,279.199402 
	C632.647461,285.567535 632.062622,292.117493 632.062622,298.920898 
	C630.834290,298.920898 629.633606,298.920898 628.346375,298.920898 
	C628.245056,298.327942 628.097229,297.859894 628.095459,297.391296 
	C628.075867,292.062317 628.159546,286.731659 628.054443,281.404633 
	C627.928101,275.000000 625.446472,271.936646 620.456665,271.732513 
	C615.370911,271.524445 610.454285,275.734589 610.135620,281.205170 
	C609.798828,286.986328 610.060059,292.802338 610.060059,298.603119 
	C609.575745,298.958588 609.091370,299.314026 608.607056,299.669495 
	C607.527100,298.722290 605.522034,297.789734 605.506775,296.825745 
	C605.299255,283.693481 605.367126,270.556885 605.367126,257.482361 
	C608.276245,256.406586 609.816772,256.726044 609.668457,260.014832 
	C609.518555,263.338715 609.636292,266.674683 609.638550,270.441895 
z"/>
<path fill="#EDEDED" opacity="1.000000" stroke="none" 
	d="
M405.038391,294.734436 
	C405.038452,297.446411 405.675140,300.295624 401.121918,298.720795 
	C401.121918,285.660248 401.067688,272.421753 401.235565,259.186127 
	C401.247650,258.233856 402.881073,257.302124 403.760651,256.360840 
	C404.165161,256.589600 404.569702,256.818359 404.974243,257.047119 
	C404.974243,262.261200 404.974243,267.475250 404.974243,273.531647 
	C410.318634,268.917419 415.587555,265.957581 421.680450,269.235779 
	C427.912292,272.588745 427.753754,278.983398 427.866302,284.993103 
	C427.950378,289.481232 427.882874,293.972198 427.882874,298.825409 
	C426.633026,298.943726 425.417511,299.058777 424.158203,299.177948 
	C423.989319,298.402710 423.798706,297.929962 423.796600,297.456360 
	C423.773743,292.300781 423.828247,287.144531 423.766724,281.989594 
	C423.690735,275.620270 421.233948,272.101349 416.730988,271.731415 
	C411.050415,271.264648 406.220978,275.245239 405.568085,281.364349 
	C405.111572,285.643280 405.195740,289.979919 405.038391,294.734436 
z"/>
<path fill="#EDEDED" opacity="1.000000" stroke="none" 
	d="
M497.961639,264.078888 
	C497.961639,261.604401 497.961639,259.620331 497.961639,257.264465 
	C499.289276,257.177704 500.465912,257.100800 501.994263,257.000916 
	C501.994263,262.444763 501.994263,267.530273 501.994263,272.083527 
	C506.007507,270.675293 509.797577,268.503143 513.747009,268.158813 
	C519.536316,267.654114 523.743530,271.947113 524.045410,278.038422 
	C524.381531,284.820435 524.122375,291.631958 524.122375,298.825104 
	C521.746094,299.717773 520.221313,299.470886 520.372314,295.880920 
	C520.567810,291.231689 520.520020,286.565155 520.393555,281.911072 
	C520.203430,274.914886 517.842346,271.832977 512.843323,271.726196 
	C507.372345,271.609283 502.674622,276.024841 502.154755,282.012604 
	C501.911011,284.820435 502.055023,287.662781 502.041107,290.489563 
	C502.028015,293.148987 502.038361,295.808563 502.038361,298.858185 
	C500.780701,298.969513 499.592621,299.074707 497.961639,299.219116 
	C497.961639,287.430939 497.961639,276.000122 497.961639,264.078888 
z"/>
<path fill="#E5E5E5" opacity="1.000000" stroke="none" 
	d="
M687.914429,268.476013 
	C700.541809,267.046021 704.877991,270.831604 705.042664,282.999542 
	C705.112488,288.162323 705.054260,293.326843 705.054260,298.734222 
	C702.691162,299.510712 700.976807,299.884460 701.052917,296.326569 
	C701.166870,290.999817 701.104614,285.662872 700.911499,280.337708 
	C700.710144,274.786591 698.402832,272.514801 693.022461,272.146973 
	C687.429382,271.764648 683.554871,274.304535 683.164124,279.579834 
	C682.699341,285.855194 683.054626,292.191315 683.054626,298.501099 
	C682.593140,298.869324 682.131592,299.237549 681.670105,299.605774 
	C680.577087,298.697876 678.556824,297.805573 678.541199,296.879486 
	C678.437683,290.738281 678.553589,284.574005 679.014771,278.448608 
	C679.405396,273.261444 682.628113,270.121796 687.914429,268.476013 
z"/>
<path fill="#EFEFEF" opacity="1.000000" stroke="none" 
	d="
M570.134460,282.802124 
	C570.125916,278.505005 569.925049,274.663635 570.242371,270.865601 
	C570.342712,269.663849 571.827393,268.577728 572.678528,267.438690 
	C573.192505,267.705627 573.706421,267.972534 574.220337,268.239441 
	C574.220337,274.002014 574.069519,279.769897 574.270752,285.525421 
	C574.416748,289.699829 575.720947,293.638367 580.322449,294.761047 
	C584.078064,295.677368 588.265869,295.900269 590.687134,292.066101 
	C592.016235,289.961395 592.712402,287.188110 592.865967,284.665894 
	C593.188293,279.370392 592.963806,274.041565 592.963806,268.336029 
	C594.220215,268.218842 595.397888,268.109009 596.872437,267.971466 
	C596.872437,274.406036 597.151550,280.533722 596.803162,286.625519 
	C596.348022,294.582001 591.833618,298.806549 584.235718,299.078369 
	C576.127625,299.368469 571.859924,295.639648 570.673645,287.223694 
	C570.488281,285.908508 570.319214,284.591034 570.134460,282.802124 
z"/>
<path fill="#DFDFDF" opacity="1.000000" stroke="none" 
	d="
M325.036987,257.417267 
	C325.219025,262.062592 325.219025,266.360504 325.219025,270.204346 
	C327.271881,272.926208 332.283051,268.949951 332.705353,274.667816 
	C330.255249,274.822845 328.014008,274.964630 325.084900,275.149963 
	C325.327179,280.174835 325.341400,285.082489 325.870728,289.933929 
	C326.267944,293.574493 328.089600,296.058380 332.480255,295.262665 
	C333.197510,295.132660 334.134949,296.217255 334.970612,296.740509 
	C334.290955,297.486877 333.743805,298.641388 332.909790,298.912201 
	C328.143585,300.459717 322.660004,297.106293 321.935638,291.632355 
	C321.243591,286.402344 321.456146,281.045624 321.380432,275.743042 
	C321.304535,270.428894 321.470093,265.109802 321.320923,259.798767 
	C321.241821,256.980957 322.260132,256.147522 325.036987,257.417267 
z"/>
<path fill="#E6E6E6" opacity="1.000000" stroke="none" 
	d="
M377.435242,275.088562 
	C379.980743,266.036591 386.746948,264.595947 393.810608,272.584045 
	C392.206909,272.429260 390.476196,272.605408 389.026764,272.048920 
	C386.247528,270.981903 383.676453,269.894958 381.750916,273.270721 
	C379.840240,276.620514 382.263672,278.046478 384.566956,279.519440 
	C386.501373,280.756531 388.552979,281.851288 390.330383,283.284729 
	C394.542114,286.681488 395.399292,291.064697 392.839478,295.028656 
	C390.429016,298.761292 385.362762,300.259247 381.017944,298.384338 
	C379.381348,297.678131 377.885254,296.646332 376.025055,295.593109 
	C376.964752,294.253906 377.681061,293.233032 378.506378,292.056763 
	C379.755554,293.009460 380.845520,294.522308 381.809326,294.445770 
	C384.508392,294.231506 388.111084,294.209869 389.591614,292.543549 
	C391.646606,290.230621 390.000458,287.497345 387.109375,285.731201 
	C383.001099,283.221558 377.799255,281.562073 377.435242,275.088562 
z"/>
<path fill="#EFEFEF" opacity="1.000000" stroke="none" 
	d="
M315.190552,270.184387 
	C315.210144,279.896942 315.210144,289.211609 315.210144,298.722412 
	C312.776855,299.447998 311.022186,299.937195 311.078796,296.318817 
	C311.219208,287.345428 311.124908,278.368378 311.124908,268.592377 
	C312.733307,269.067047 313.952118,269.426727 315.190552,270.184387 
z"/>
<path fill="#E5E5E5" opacity="1.000000" stroke="none" 
	d="
M313.635925,262.480164 
	C312.185547,261.264435 310.909973,260.047729 310.117615,258.571655 
	C309.971527,258.299408 311.789307,256.297913 312.685242,256.309265 
	C313.848267,256.323975 315.979034,257.602142 315.947845,258.252777 
	C315.880371,259.660065 314.701477,261.014069 313.635925,262.480164 
z"/>
<path fill="#121212" opacity="1.000000" stroke="none" 
	d="
M212.903412,293.068359 
	C212.933533,298.471924 212.901306,303.470093 212.949295,308.467468 
	C212.977631,311.418976 211.110138,313.718719 210.312622,316.114105 
	C206.849411,326.516113 196.330338,326.990173 189.066696,333.590454 
	C189.066696,325.723969 189.024353,318.831696 189.124924,311.941528 
	C189.136383,311.156311 189.850433,310.300049 190.415375,309.624481 
	C191.150223,308.745758 192.501221,308.164062 192.829422,307.197296 
	C196.096588,297.574188 205.651855,296.741516 212.903412,293.068359 
z"/>
<path fill="#141414" opacity="1.000000" stroke="none" 
	d="
M179.122330,300.918854 
	C182.275970,306.030670 187.280746,309.843872 186.819916,316.505096 
	C186.465759,321.624268 186.749390,326.787567 186.749390,332.823639 
	C180.115067,329.032837 173.639420,326.127991 168.201431,321.891266 
	C165.466309,319.760315 163.598557,315.339325 163.138535,311.724854 
	C162.332733,305.393616 162.913727,298.885864 162.913727,291.973938 
	C168.497849,295.074554 173.632751,297.925781 179.122330,300.918854 
z"/>
<path fill="#282828" opacity="1.000000" stroke="none" 
	d="
M189.987152,302.150391 
	C190.051270,304.032776 190.124451,305.727661 189.529404,307.141174 
	C189.360840,307.541595 186.717606,307.595276 186.144196,306.961731 
	C185.351669,306.086151 184.812729,303.605194 185.283752,303.235016 
	C186.425888,302.337402 188.214630,302.262573 189.987152,302.150391 
z"/>
<path fill="#333333" opacity="1.000000" stroke="none" 
	d="
M160.370422,316.845520 
	C162.076767,317.737000 163.581818,318.691650 164.657532,319.999420 
	C164.859222,320.244659 163.484009,322.552063 162.586670,322.744781 
	C161.432632,322.992645 158.989700,322.179260 158.929520,321.624695 
	C158.769516,320.150238 159.590027,318.569366 160.370422,316.845520 
z"/>
<path fill="#282828" opacity="1.000000" stroke="none" 
	d="
M212.547852,317.081177 
	C214.421387,317.710419 216.088028,318.326813 217.288284,319.444214 
	C217.600815,319.735138 216.752594,322.080627 215.903107,322.588287 
	C215.027649,323.111481 212.532547,322.802399 212.427185,322.408173 
	C211.992920,320.783386 212.197327,318.987946 212.547852,317.081177 
z"/>
<path fill="#131313" opacity="1.000000" stroke="none" 
	d="
M179.209854,251.686768 
	C175.172974,245.951340 175.178986,245.756210 179.649490,233.257950 
	C185.030457,233.257950 190.494003,233.257950 196.003586,233.257950 
	C201.514542,243.901077 199.739975,250.633087 187.672134,263.658020 
	C184.877548,259.720856 182.137558,255.860626 179.209854,251.686768 
z"/>
<path fill="#333333" opacity="1.000000" stroke="none" 
	d="
M194.282791,230.535217 
	C189.261032,230.545685 184.673370,230.545685 179.773743,230.545685 
	C179.773743,227.886810 179.773743,225.657791 179.773743,222.937393 
	C185.072723,222.937393 190.386612,222.937393 197.073792,222.937393 
	C196.228455,225.658691 195.472672,228.091721 194.282791,230.535217 
z"/>
<path fill="#282828" opacity="1.000000" stroke="none" 
	d="
M152.191376,275.817383 
	C151.498596,274.317902 150.615128,272.732788 151.042435,271.679382 
	C151.440613,270.697693 153.363815,269.607727 154.375610,269.803864 
	C155.411789,270.004730 156.156525,271.708984 157.028824,272.755219 
	C155.543457,273.824768 154.058075,274.894287 152.191376,275.817383 
z"/>
<path fill="#282828" opacity="1.000000" stroke="none" 
	d="
M224.914154,271.224457 
	C224.403503,273.052917 223.968979,274.793121 222.865555,275.801117 
	C222.435104,276.194305 220.073273,275.259247 219.381592,274.336639 
	C218.807816,273.571259 219.220673,270.901520 219.494186,270.855774 
	C221.190338,270.572113 222.970551,270.791229 224.914154,271.224457 
z"/>
<path fill="#282828" opacity="1.000000" stroke="none" 
	d="
M190.716888,274.509430 
	C188.924469,274.955109 187.148804,275.442780 185.765289,274.910706 
	C185.177673,274.684753 184.950699,272.122375 185.435364,270.999847 
	C185.757095,270.254669 188.289474,269.530396 188.683517,269.929871 
	C189.748032,271.009094 190.198334,272.694153 190.716888,274.509430 
z"/>
<path fill="#121212" opacity="1.000000" stroke="none" 
	d="
M555.595337,290.318573 
	C549.722839,296.145447 544.138245,296.660187 539.254639,292.080841 
	C534.681946,287.792999 534.389771,280.282928 538.606995,275.430054 
	C543.016602,270.355774 549.300720,269.763275 554.563538,273.925476 
	C558.907349,277.360870 559.359131,282.937775 555.595337,290.318573 
z"/>
<path fill="#131313" opacity="1.000000" stroke="none" 
	d="
M361.971497,272.833954 
	C364.000427,275.001251 365.678406,277.005188 368.002045,279.780212 
	C359.604858,279.780212 352.564178,279.780212 345.536804,279.780212 
	C346.877106,272.131866 353.686523,269.089905 361.971497,272.833954 
z"/>
<path fill="#121212" opacity="1.000000" stroke="none" 
	d="
M648.743530,293.560181 
	C639.835632,287.185669 642.566162,275.396088 650.818359,271.933197 
	C655.263611,270.067780 660.805176,271.708649 663.712280,275.423035 
	C666.973938,279.590332 666.930176,285.392548 663.600769,290.212830 
	C660.788574,294.284332 655.517517,295.961578 650.427551,294.387695 
	C649.956604,294.242096 649.517944,293.991699 648.743530,293.560181 
z"/>
</svg>